<?xml version="1.0" encoding="UTF-8"?>
<svg id="Layer_1" xmlns="http://www.w3.org/2000/svg" version="1.1" viewBox="0 0 1920 1080">
  <!-- Generator: Adobe Illustrator 29.0.1, SVG Export Plug-In . SVG Version: 2.1.0 Build 192)  -->
  <defs>
    <style>
      .st0, .st1, .st2, .st3 {
        fill: none;
      }

      .st1, .st4, .st2, .st5 {
        stroke-linecap: round;
        stroke-linejoin: round;
      }

      .st1, .st4, .st2, .st5, .st3 {
        stroke: #000;
      }

      .st1, .st5, .st3 {
        stroke-width: 5px;
      }

      .st4, .st2 {
        stroke-width: 2px;
      }

      .st4, .st5 {
        fill: #fff;
      }

      .st6 {
        isolation: isolate;
      }

      .st3 {
        stroke-miterlimit: 10;
      }

      .st7 {
        fill: #202020;
      }
    </style>
  </defs>
  <g id="Museum">
    <g id="Museum1">
      <rect class="st5" x="64.4" y="150.5" width="1791.2" height="96.3"/>
      <rect class="st5" x="64.4" y="912.1" width="1791.2" height="130.7"/>
      <polygon class="st5" points="1855.6 912.1 64.4 912.1 168.6 851.2 1751.4 851.2 1855.6 912.1"/>
      <polygon class="st5" points="1303.1 912.1 1303.1 935.6 1321.1 955.3 1321.1 980.8 1338.6 999.4 1338.6 1026.5 1353.3 1042.8 1353.3 1073.6 578.3 1073.6 578.3 1042.8 592.9 1026.5 592.9 999.4 610.5 980.8 610.5 955.3 628.5 935.6 628.5 912.1 1303.1 912.1"/>
      <line class="st3" x1="628.5" y1="935.6" x2="1303.1" y2="935.6"/>
      <g>
        <line class="st0" x1="628.5" y1="955.7" x2="1303.1" y2="955.7"/>
        <g>
          <path class="st7" d="M1303.1,955.8c.3,0,.2,0-.8,0h-.7,1.5Z"/>
          <path class="st7" d="M1296.5,955.8c-1.2,0-2.5,0-1.7.2h2.6c1,0,1.7,0,1.5,0h2.1-4.6c-.4,0,0,0,0,0h0v-.2Z"/>
          <path class="st7" d="M1200.8,955.3h.6-.6Z"/>
          <path class="st7" d="M1141.6,955.1h.7c-.4,0-.8,0-.7,0Z"/>
          <path class="st7" d="M1131.4,954.7h.6-.6Z"/>
          <path class="st7" d="M1200.8,955.3h-1.6,1.6Z"/>
          <path class="st7" d="M1283.3,956h.9-.9Z"/>
          <path class="st7" d="M1226.9,955.2h.9-.9Z"/>
          <path class="st7" d="M1247,955.3c-.4,0-.6.2-.8.2h1-.2v-.2Z"/>
          <path class="st7" d="M1278.8,955.6h.6-.6Z"/>
          <path class="st7" d="M1212.6,955.1h-.2.2Z"/>
          <path class="st7" d="M651.8,956.2h0s-.2,0,0,0Z"/>
          <path class="st7" d="M628.5,955.7h.3-.4.1Z"/>
          <path class="st7" d="M1112.9,954.3h0c.5,0,.2,0,0,0Z"/>
          <path class="st7" d="M942.9,955.3c1.9,0-3.1.2-.2.2-.3,0,2.6-.2.2-.2Z"/>
          <path class="st7" d="M1282.8,956h-.8.8Z"/>
          <path class="st7" d="M942.7,955.5h.3-.3Z"/>
          <path class="st7" d="M1070.2,954.5h.4-.4Z"/>
          <path class="st7" d="M1102,954.9h-.8.8Z"/>
          <path class="st7" d="M1053.7,955h-1.2,1.2Z"/>
          <path class="st7" d="M1036.6,955h.8-.9,0Z"/>
          <path class="st7" d="M704,956.6c-.4,0-.6,0-.8-.2.3.2-2.3.2.8.2Z"/>
          <path class="st7" d="M1283.3,956h-.5.6,0Z"/>
          <path class="st7" d="M1053,957.1h-2.7,2.7Z"/>
          <path class="st7" d="M827.2,956.5h-.6.6Z"/>
          <path class="st7" d="M1042.2,957c-.5,0-1-.2-1.5-.2h-.3,1.8v.2Z"/>
          <path class="st7" d="M703.2,956.4h0Z"/>
          <path class="st7" d="M685.2,956.8c2.6,0,1.2-.2,1.8-.3,3.1,0,1.4.2,2.5.3,1.9,0,3.4-.3,4.9-.2,0,0,.4,0,0,0,2-.2,6.1,0,8.5-.2h.3c-.4,0-.5-.3-.4-.4,1.2,0,2.2-.2,2.6,0h-1.1,1.2c1.1.2-1.7,0-1.7.2,2.4,0,5.2-.3,7-.2.4.3-4.3,0-1.8.3h-2.8c2.2.3-1.7,0,.3.3h7.9c.8,0-.3-.2.6-.4,5.3-.3,4.2.7,8,.3,1-.2,1.4-.5,4.2-.3l-.9.3c3.6,0,2-.5,5.8-.2-.7,0-2.8,0-2.3,0,2.4.3,1.7-.2,3.6-.2l.4.3c3.8,0,8-.2,12.3-.3-.2,0-1,.2,0,.3,5.3,0,11.4,0,16.6.2l2-.3c.5,0,.8,0,.3.2,2,0,0-.2,1.1-.3,1.1,0,1.5.2.8.2,3.5-.2,10.1-.5,13.8-.2h-.7c2.9.2,3.3-.5,6-.2h-.5c6.3,0,13.3,0,18.1.2.9-.3,6.3,0,6.7-.3,3.6.2,2.6.3,7.7.4,1.4,0,2-.3,3.7-.3v.2l2.3-.2,1.2.2h1.6c-.6,0-1.3-.2-1.2-.2h3.9c1.2,0,2.1,0,2.1.2l5.8-.2s-1.1,0-1.9.2c3.1-.2.6.2,3.4,0-.4,0,.2,0,.3,0h7-.5,13.9c-1.7,0-1.3-.2,0-.2h.6c.9,0-1.5,0,.4,0s1.2,0,.2.2h2.2-.5,16.2s1.6,0,2.8-.2h9.6c2.5,0,.7,0,1.8,0s3.7,0,1.9,0h10.7c-.6,0-1.2,0-.9,0,1,0,2.2,0,2,0h-.2c6,0,13.7.3,18.5,0h-.3,4.9c2.3,0-1.4,0,.3,0h12.7c3.4.3,12,0,16.5.3h-.3c1.2-.2,1.4,0,2.3,0,0,0-1.3,0-.5,0,10,0,20.6.3,30.8.5,3.7,0,2.1-.7,6.8-.3l-1.3.2c7.6-.2,15.5,0,22.8,0-.4,0-.5.2-1.2,0,1.6.2,5.8,0,5.8,0,1.2,0,.3.2,1,.2,1.6,0,3.9-.2,4.8,0h-.7c1,0,4.8,0,3.8-.2h7.5c1.4-.3,4.8.2,5.2-.2-.2.4,4.9.4,6.6.2-.6,0,1.5,0,.8.3,2,0,3.8,0,3.5-.3,3.7.5,7.4-.4,9.5.3,5.9-.2,11.5-.4,16.8-.5-.2.5-5.9,0-5.7.5,5.1-.2,8-.6,13-.5,1.3,0-.7.2-1.2.3,5.1-.2,9.8,0,14.3-.2h-1c.9,0,2.1,0,2-.2h-.9c-1.4-.3,3.5-.6,3.7-.8-1.5.6,4.5.2,2.1,1,.6,0,1.3,0,1.2-.3.9,0,1.1,0,.3.3,3.2,0,2.1-.3,4.9-.3,0,0-.6.2-.9.3,1.5-.2,2.9-.4,5.4-.3-.2,0,0,.2-.6.2,4.2,0,7.1-.6,11.7-.4-1.4.5,1.6.2,1.8.5h2.5l-1-.3c2.2,0,4.1-.3,5.9-.2l-1.6.2h4.1l-2.3-.2c2.2-.2-.2-.5,2.7-.4-.6,0,2.2,0,3.3.2h0c1.1,0,2.2-.3,3.8-.2.4,0-.3.4,0,.5,1.1-.3,5.1,0,6.4-.4-.4,0-.5.3-.3.3l.9-.3c1,0,1.2,0,1,.3,3,0-1-.5,2.6-.3h-.7c3.6,0,6.9-.2,10.2,0,1,.4-2.9,0-1.8.4,4.8,0,9.9-.5,14.5-.4h-.9c.6-.5,3.4.2,5.8,0-.6,0-.8.3-.6.2,3.2,0,6.5,0,11.2-.3h-.6c1.9.2,4.9.2,6.9.2s1.8,0,1.1-.3c6.2.6,11.8-.4,17.3,0-.7,0-1.6,0-1,0h4.7c-.4-.3-.6-.2-1.6-.3.6,0,1.9-.2,3.1-.2-2.1,0,0,.3.9.4-.2,0,.2,0,0-.2,2.4.3.4-.3,3.8,0h-.2,3.8c.6.2-1.3,0-1.4.2,1.9,0,3.7-.3,5.4-.2h-2.8c1.9.2,2.1.2,3.5.2h3.2-.8c2.4-.5,4.8,0,8-.4-3.1.3-.5.2-.8.3.8,0,2.1,0,1.7,0,1.5-.2,2.5,0,4.7,0,0,0,1.6,0,1.3,0,2,0-.5,0-.3-.2,3-.2,7.1.2,11.5,0,3.8,0,4.4-.2,7.9-.3,1.2,0-1,0-1,0h5.1c-.4,0,0,0,.6,0h2.8-1.4,5.1c.5,0-1.1,0-1.7,0h5.7-1.3c.7,0,.4,0-.2,0h-2.5,1.2c-1.3-.2-5,0-7.5,0h1-2.6c-.6,0-.9,0,.3,0h-3.1c-.2,0,0,0,0,0h-1.8c.3,0-.3,0,.8,0h-6.3.3c-4.4,0-.4,0-3.7.3l-2.2-.3h-.4c-.4,0-1.3,0-1.2,0-1.7,0,.3,0-.7.2-2.2,0-6,0-6.5-.2-.8,0,2.1,0-.2.2-.7-.3-2.7,0-4.7,0,.6-.2,2.5,0,.5-.2-1.2.3-3.9,0-5.5,0,0,.2-3.6,0-6.4.2.2,0-5.3-.2-7.9-.2h0c-.5.2-3.2.2-5.2.2,0-.2.4-.2,1.5-.3h-1.8c-.4,0-1,0-2.2.2l.5-.2c-2.4,0-4.9.2-8.1,0-.2.2,2.5.6-.8.7,0,0-.2-.3.6-.3h-1.6l1.3-.2c-1.4,0-.8.2-1.9,0,0-.2-.8,0-.7-.2h1.4c-1.3,0-2.9,0-3.4-.3,0,0,0,.2-.9.2-2.4,0-.8-.2-2.3-.3-.6,0-2.2,0-2.2.2-.7,0-.8,0-1.1-.2-1.3,0-5.9,0-4.5.3h.3-.2c-4.2.3-8.7-.2-12.8,0h0c-2.5,0-5.5,0-7.2.2-.7,0-1.7-.2-1.4-.3-1.9,0-2.1.2-4.8,0,1.9-.2-.7-.2,1.9,0-2.4,0-3-.2-5.6,0,.9-.2-1.8-.3-3-.2l1.7.2h-3.6l.6-.3c-5-.4-9,.7-12.8,0-1.3.2,2.7.2,1.5.5-2.3,0-4.7-.5-5.4-.5-3.2-.2-2.9.5-6.2.4.4,0,.8.5-1.7.6-2.3,0-2.8-.5-1.4-.6h.8c.8,0,1.7,0,.8-.2h-.3c-1.1,0-4.3,0-3.6-.2-1.7,0-.8.2.6.3-3-.2-4.6,0-7.7,0,.5,0,.9.2.4.2-4.5-.2-2,.2-5,.3-1.7-.2.6-.5-2.4-.3-1.9,0-.4-.3.3-.4-2.8.2-5.2-.2-6.8-.2h1.5-2.3l.8.3c-.9,0-1.6,0-1.6-.2-.9.2.7.4-1.1.7-1.1,0-3.5,0-3.9-.2,3.6,0-.4-.3,2.7-.4h-2.2.4c-3.4-.3-1.6.4-5.2.4.4-.2-.8-.4-1.4-.3,1.4,0,.7.3-.6.5-2.3-.2-2.5,0-3.7,0h1.4c-.5.3-1.6.2-3.2.3,0-.2,1.4,0,.9-.2-1.8.3-4-.3-6.5,0-1.1,0,0-.3-1.1-.4-2.8.2-3-.2-5.9,0,.8.2,1,.2-1.1.4l4.8-.2-3.1.4c1.4,0,3.1-.2,3.9,0-1.5.2-1.3,0-.6.3-2-.4-3.9.2-6.2,0v-.6c-3.4-.3-6,.3-10.5.2h1.4c-.6.3-2.8,0-4.2.2,0-.2-.8-.3-1.4-.4,0,.2-3.3,0-3.7.4l-2-.2c-3.6,0-4.1.6-7.6.5,1-.2-.5-.3,1.8-.5h-2.2c-.7,0-3.2.3-4.3,0-.5,0-.7.3-1.9.3s0,0,0,0c0,0-2,0-.9.3-3.6-.6-9.9,0-13.1-.4h-7.8.4c-3.2-.2-1.9.5-5.5.3-1.8-.3,1.9-.2.8-.3-.5-.6-4.3,0-6.8-.2h.6c-1.8-.2-4.5.2-7.5.2,0,0,.2,0,0,0-2.1.3-6,.4-8.9.5.9-.2,1.3,0,.8-.3-1.3,0,.4.3-2.2.4-.8,0-2.7-.2-3-.4h2.5c-1.3-.3-3.2,0-4.5,0h.2c-3.8,0-3.8.2-7.8.2h.4c-2.2.4-1.8,0-4,0l-.7-.3c-1.5,0-5.1.3-7.7.3,1.5-.2,4.5-.3,6.4-.4-1.4,0-4.9,0-5.7.2h1.9c-1.8.2-4.1.3-7,.3.5-.5-7.5,0-9.6-.4-5.1.2-10.1,0-16,0,2.1.2-1.7,0-1.4.3h-6.2c-1-.2,1.3-.2,1.2-.2h-3.3c.4,0-1,0-2.8,0h2.4c-4.2.2-3.7,0-7.9,0h1.3-10.2c-.4,0-.9,0,0,0-5.2,0-11.6.2-15.7,0h.4-2.9s.4,0,0,0h-3.9,1.1-12.1s-4-.2-6-.2h-15.6c-3.4-.2-11.5-.2-17-.3.8,0,0,.2-1.1.2s-3.6,0-3.3,0h.5c-1-.2-3.6-.2-5.7-.2l-.3.3c-5.4-.5-14.1,0-17.1-.4-1.3,0-2.9,0-4.2.2v-.2h-9.8l.9-.2c-2.5,0-3.2.6-5.5.6l-.7-.3c-4.4,0-8.8-.4-13.2,0,0,0,.2-.2.9-.2-2.1,0-8-.3-7.2.2,0-.3-4.5,0-6.9,0l.4-.2c-2,.3-2.1.4-4.9.5-.7,0-.6-.2.3,0-2.2,0-1.7.2-4.4,0l1-.2c-2.3,0-2.1,0-3.3.2-1.4,0-4.3,0-4.6-.3-.3,0-1.5.3-2.9.3s.3,0,.5-.2c-3.8-.2-5.7.3-8.3,0,0,0-.2,0-.4-.2,3,0,5.5,0,5.2,0,0-.2-2.4-.3-.5-.6-2,.2-5.3.5-7.7.5h-.3.2-3.5c-.3-.2-2.8,0-4,0,0,.2-1.5.2,0,.4-.2,0,.2,0,1,0h3.5c-1,0-2,.2-3.3,0-.6.2-1.3.3-1.7.4-1.7-.3-4.9-.5-5.3-.7-3.7,0-8.7,0-11.1.5-1.1,0-1.2,0-1.6-.2h1.7c-2.1,0-6.2,0-6.8.3-2.7,0,1.5-.3-2.2-.2h.5c-7.2-.5-11.7.6-19.7,0h.9c-9.1-.2-18.7.2-27.7,0-2.5,0-2.8,0-4.4.2h-3.2c-3.8,0-6.5-.3-11.3,0h.6c-1.7,0-5.4,0-5.1,0h-5.4c-3.3,0,.5,0-4.2,0s-5,0-4.4,0h1.9-1.6c-.3,0-1.5,0,2.4.2h3.7-2.3,7c.3,0-1.2,0,.6,0s-1.2,0,.9,0h2.5c.2,0,0,0-.7,0h4.4c1.4,0,4.7,0,4.5.2h3.7c-2.3.2,4.8,0,4.2.3,1.7-.2,6.2,0,9.2,0h-.8c1.7,0,2.2,0,3.3.2.2-.2,2.9-.2,4.3-.4,2.1.2-1.3.3-.6.5,0-.2,3.7-.2,2.9-.3,1.6.2,1.4,0,2.2.3.3-.3,1.5,0,2.8-.2,2.3.2.6.3,3.2.2,1.2,0-1.1.2-1.1.2h0l.7-.2v.2ZM745.9,956.4h-1.2,1.2ZM751,956.4h-2.2c-.2,0,0-.2.5-.2-.3,0,.9,0,1.7.2h0ZM740.2,954.7h1.2-1.4.3,0Z"/>
          <path class="st7" d="M738.8,955h-.3.8-.5Z"/>
          <path class="st7" d="M1201.5,955.4h.2-.2Z"/>
          <polygon class="st7" points="821.5 956.6 821.5 956.6 821.1 956.6 821.5 956.6"/>
          <path class="st7" d="M1229.7,956.1h.4-.4Z"/>
          <path class="st7" d="M1241.8,956.1h1.7-1.7Z"/>
          <path class="st7" d="M1251.1,956.2h.2-.2Z"/>
          <path class="st7" d="M1102.7,956.9h-.4c-.8,0-.3,0,.4,0Z"/>
          <path class="st7" d="M1146.8,956.2h-1.4,1.4Z"/>
          <path class="st7" d="M1053.3,957.1h-.3.3Z"/>
          <path class="st7" d="M1143.4,956.3h2.1-2.1Z"/>
          <path class="st7" d="M1291.6,956h.4-.5,0Z"/>
          <path class="st7" d="M1292.1,955.9h.5-.5Z"/>
          <path class="st7" d="M1293.7,955.9h-1.1,1.1Z"/>
          <path class="st7" d="M1279.2,956h0Z"/>
          <path class="st7" d="M1275.5,956h3.6-3.6Z"/>
          <path class="st7" d="M1259.8,955.5h3.2c-.6,0-1.3,0,.2,0-4-.2.8,0-3.3,0h0Z"/>
          <path class="st7" d="M1250.1,955.4c1.7,0,0,0,0,0-1.1,0-1.3,0,0,0Z"/>
          <path class="st7" d="M1179.5,955.1l.2-.2c-1.3,0,0,0-.2.2Z"/>
          <polygon class="st7" points="1166 956.4 1167.3 956.6 1167.9 956.3 1166 956.4"/>
          <polygon class="st7" points="1158.1 954.6 1158.6 954.5 1156.5 954.6 1158.1 954.6"/>
          <path class="st7" d="M1039.6,954.8l.4.3c.9,0,1.1-.4-.4-.3Z"/>
          <path class="st7" d="M988.5,955.2c-.6,0-2-.2-2.9,0h2.9Z"/>
          <polygon class="st7" points="835.1 955 836.1 955 834.2 955 835.1 955"/>
        </g>
      </g>
      <g>
        <line class="st0" x1="610.2" y1="999.4" x2="1322.3" y2="999.4"/>
        <g>
          <path class="st7" d="M1322.3,999.5c.4,0,.2,0-.9,0h-.7,1.6Z"/>
          <path class="st7" d="M1315.4,999.4c-1.2,0-2.6,0-1.8.2h2.8c1,0,1.8,0,1.6,0h2.2-4.8c-.4,0,0,0,0,0h0v-.2Z"/>
          <path class="st7" d="M1214.4,999h.7-.7Z"/>
          <path class="st7" d="M1151.8,998.7h.7c-.4,0-.8,0-.7,0Z"/>
          <path class="st7" d="M1141.1,998.3h.6-.6Z"/>
          <path class="st7" d="M1214.4,999h-1.7,1.7Z"/>
          <path class="st7" d="M1301.5,999.7h.9-.9Z"/>
          <path class="st7" d="M1242,998.8h.9-.9Z"/>
          <path class="st7" d="M1263.2,998.9c-.5,0-.7.2-.8.2h1-.2v-.2Z"/>
          <path class="st7" d="M1296.7,999.3h.6-.6Z"/>
          <path class="st7" d="M1226.8,998.7h-.2.2Z"/>
          <path class="st7" d="M634.7,999.9h0s-.2,0,0,0Z"/>
          <path class="st7" d="M610.2,999.4h.3-.4.1Z"/>
          <path class="st7" d="M1121.6,997.9h0c.5,0,.2,0,0,0Z"/>
          <path class="st7" d="M942.1,998.9c2,0-3.3.2-.2.2-.3,0,2.8-.2.2-.2Z"/>
          <path class="st7" d="M1300.9,999.7h-.9.9Z"/>
          <path class="st7" d="M941.8,999.2h.3-.3Z"/>
          <path class="st7" d="M1076.5,998.2h.5-.5Z"/>
          <path class="st7" d="M1110.1,998.5h-.8.8Z"/>
          <path class="st7" d="M1059.1,998.6h-1.2,1.2Z"/>
          <path class="st7" d="M1041,998.7h.9-.9Z"/>
          <path class="st7" d="M689.8,1000.3c-.4,0-.6,0-.8-.2.3.2-2.4.2.8.2Z"/>
          <path class="st7" d="M1301.5,999.6h-.5.6,0Z"/>
          <path class="st7" d="M1058.4,1000.7h-2.9,2.9Z"/>
          <path class="st7" d="M820,1000.1h-.7.7Z"/>
          <path class="st7" d="M1046.9,1000.7c-.5,0-1.1-.2-1.6-.2h-.3,2v.2h0Z"/>
          <path class="st7" d="M689,1000.1h0Z"/>
          <path class="st7" d="M670,1000.4c2.8,0,1.3-.2,1.9-.3,3.3,0,1.5.2,2.6.3,2,0,3.6-.3,5.1-.2,0,0,.4,0,0,0,2.2-.2,6.4,0,8.9-.2h.3c-.4,0-.5-.3-.4-.4,1.2,0,2.3-.2,2.8,0-.5,0-.9,0-1.2,0h1.3c1.2.2-1.8,0-1.8.2,2.5,0,5.5-.3,7.4-.2.4.3-4.5,0-1.9.3h-3c2.3.3-1.8,0,.3.3h8.3c.9,0-.3-.2.6-.4,5.6-.3,4.4.7,8.5.3,1.1-.2,1.5-.5,4.4-.3l-1,.3c3.8,0,2.2-.5,6.2-.2-.7,0-3,0-2.4,0,2.6.3,1.8-.2,3.8-.2l.4.3c4,0,8.5-.2,13-.3-.2,0-1,.2,0,.3,5.7,0,12.1,0,17.5.2l2.1-.3c.5,0,.9,0,.4.2,2.1,0,0-.2,1.1-.3,1.2,0,1.6.2.8.2,3.8-.2,10.7-.5,14.6-.2h-.8c3.1.2,3.5-.5,6.3-.2h-.5c6.7,0,14,0,19.1.2,1-.3,6.6,0,7-.3,3.8.2,2.7.3,8.1.4,1.4,0,2.1-.3,3.9-.3v.2l2.4-.2,1.3.2h1.7c-.7,0-1.4-.2-1.3-.2h4.2c1.3,0,2.2,0,2.2.2l6.1-.2s-1.2,0-2,.2c3.3-.2.6.2,3.6,0-.4,0,.2,0,.3,0h7.4-.5,14.7c-1.8,0-1.4-.2,0-.2h.6c1,0-1.6,0,.4,0s1.3,0,.2.2h2.3-.5,17.1s1.7,0,3-.2h10.1c2.6,0,.8,0,1.9,0s3.9,0,2,0h11.2c-.6,0-1.3,0-.9,0,1,0,2.3,0,2.2,0h-.3c6.3,0,14.5.3,19.5,0h-.3,5.2c2.4,0-1.4,0,.3,0h13.5c3.6.3,12.7,0,17.5.3h-.3c1.2-.2,1.5,0,2.4,0,0,0-1.3,0-.6,0,10.5,0,21.8.3,32.6.5,4,0,2.2-.7,7.2-.3l-1.4.2c8-.2,16.3,0,24.1,0-.5,0-.5.2-1.2,0,1.7.2,6.1,0,6.1,0,1.2,0,.3.2,1,.2,1.7,0,4.2-.2,5,0,.2,0-.5,0-.8,0,1.1,0,5,0,4-.2h7.9c1.5-.3,5,.2,5.5-.2-.2.4,5.1.4,7,.2-.6,0,1.6,0,.9.3,2.1,0,4.1,0,3.7-.3,3.9.5,7.8-.4,10,.3,6.3-.2,12.1-.4,17.8-.5-.2.5-6.2,0-6,.5,5.4-.2,8.4-.6,13.8-.5,1.4,0-.8.2-1.2.3,5.4-.2,10.4,0,15.1-.2h-1c.9,0,2.2,0,2.1-.2h-.9c-1.5-.3,3.7-.6,3.9-.8-1.6.6,4.7.2,2.2,1,.6,0,1.4,0,1.2-.3.9,0,1.2,0,.3.3,3.4,0,2.2-.3,5.2-.3,0,0-.6.2-.9.3,1.5-.2,3.1-.4,5.7-.3-.2,0,0,.2-.6.2,4.4,0,7.5-.6,12.4-.4-1.4.5,1.7.2,1.9.5h2.6l-1.1-.3c2.3,0,4.3-.3,6.3-.2l-1.7.2h4.3l-2.4-.2c2.3-.2-.2-.5,2.8-.4-.6,0,2.3,0,3.5.2h0c1.1,0,2.3-.3,4-.2.4,0-.3.4,0,.5,1.1-.3,5.3,0,6.8-.4-.5,0-.5.3-.3.3l.9-.3c1.1,0,1.2,0,1,.3,3.2,0-1-.5,2.8-.3h-.8c3.8,0,7.3-.2,10.8,0,1,.4-3.1,0-1.9.4,5,0,10.4-.5,15.3-.4h-.9c.7-.5,3.6.2,6.1,0-.6,0-.8.3-.6.2,3.3,0,6.8,0,11.9-.3h-.6c2,.2,5.2.2,7.3.2s1.8,0,1.1-.3c6.5.6,12.5-.4,18.3,0-.7,0-1.7,0-1.1,0h4.9c-.4-.3-.7-.2-1.7-.3.6,0,2-.2,3.2-.2-2.2,0,0,.3,1,.4-.2,0,.2,0,0-.2,2.6.3.4-.3,4,0h-.2,4c.6.2-1.4,0-1.5.2,2,0,3.9-.3,5.8-.2h-2.9c2,.2,2.2.2,3.7.2h3.4-.9c2.5-.5,5.1,0,8.5-.4-3.3.3-.5.2-.8.3.9,0,2.2,0,1.8,0,1.6-.2,2.7,0,4.9,0,0,0,1.7,0,1.3,0,2.1,0-.5,0-.3-.2,3.2-.2,7.5.2,12.1,0,4,0,4.7-.2,8.4-.3,1.2,0-1,0-1,0h5.4c-.4,0,0,0,.6,0h3-1.5,5.4c.5,0-1.1,0-1.8,0h6-1.3c.8,0,.4,0-.2,0h-2.7,1.3c-1.3-.2-5.3,0-7.9,0h1.1-2.7c-.6,0-1,0,.3,0h-3.3c-.2,0,0,0,0,0h-1.8c.4,0-.3,0,.8,0h-6.6.3c-4.6,0-.4,0-3.9.3l-2.3-.3h-.4c-.5,0-1.4,0-1.2,0-1.8,0,.3,0-.7.2-2.3,0-6.3,0-6.8-.2-.8,0,2.2,0-.2.2-.7-.3-2.8,0-4.9,0,.6-.2,2.6,0,.5-.2-1.3.3-4.1,0-5.8,0,0,.2-3.8,0-6.8.2.2,0-5.6-.2-8.3-.2h0c-.5.2-3.4.2-5.4.2,0-.2.4-.2,1.6-.3h-1.9c-.5,0-1.1,0-2.3.2l.5-.2c-2.6,0-5.2.2-8.6,0-.2.2,2.7.6-.9.7,0,0-.3-.3.7-.3h-1.7l1.4-.2c-1.5,0-.8.2-2,0,0-.2-.9,0-.7-.2h1.5c-1.4,0-3,0-3.6-.3,0,0,0,.2-1,.2-2.6,0-.9-.2-2.4-.3-.6,0-2.3,0-2.3.2-.8,0-.9,0-1.2-.2-1.3,0-6.3,0-4.8.3h.3-.2c-4.4.3-9.1-.2-13.5,0h0c-2.6,0-5.8,0-7.7.2-.8,0-1.8-.2-1.5-.3-2,0-2.2.2-5.1,0,2-.2-.7-.2,2.1,0-2.6,0-3.2-.2-5.9,0,.9-.2-1.9-.3-3.2-.2l1.8.2h-3.8l.7-.3c-5.3-.4-9.5.7-13.6,0-1.4.2,2.9.2,1.6.5-2.4,0-5-.5-5.7-.5-3.3-.2-3.1.5-6.6.4.4,0,.9.5-1.7.6-2.4,0-3-.5-1.5-.6.6,0,.9,0,.8,0,.8,0,1.8,0,.9-.2h-.3c-1.2,0-4.6,0-3.8-.2-1.8,0-.8.2.6.3-3.1-.2-4.9,0-8.1,0,.5,0,1,.2.5.2-4.7-.2-2.1.2-5.3.3-1.8-.2.7-.5-2.6-.3-2,0-.4-.3.4-.4-2.9.2-5.5-.2-7.2-.2h1.5-2.4l.9.3c-.9,0-1.7,0-1.7-.2-.9.2.7.4-1.1.7-1.2,0-3.7,0-4.1-.2,3.8,0-.4-.3,2.8-.4h-2.3.4c-3.6-.3-1.7.4-5.4.4.5-.2-.9-.4-1.5-.3,1.5,0,.7.3-.7.5-2.4-.2-2.6,0-3.9,0h1.4c-.5.3-1.7.2-3.4.3,0-.2,1.5,0,.9-.2-1.9.3-4.2-.3-6.8,0-1.2,0,0-.3-1.2-.4-2.9.2-3.2-.2-6.2,0,.9.2,1,.2-1.1.4l5.1-.2-3.2.4c1.5,0,3.2-.2,4.1,0-1.5.2-1.4,0-.7.3-2.1-.4-4.1.2-6.6,0v-.6c-3.6-.3-6.4.3-11.1.2h1.5c-.6.3-2.9,0-4.4.2,0-.2-.8-.3-1.5-.4,0,.2-3.4,0-3.9.4l-2.1-.2c-3.8,0-4.3.6-8,.5,1.1-.2-.6-.3,1.9-.5h-2.3c-.7,0-3.4.3-4.5,0-.5,0-.7.3-2.1.3s0,0,0,0c0,0-2.1,0-.9.3-3.8-.6-10.5,0-13.8-.4h-8.3.5c-3.3-.2-2.1.5-5.8.3-1.9-.3,2-.2.8-.3-.5-.6-4.6,0-7.1-.2h.6c-2-.2-4.8.2-8,.2,0,0,.2,0,0,0-2.2.3-6.3.4-9.4.5,1-.2,1.4,0,.8-.3-1.4,0,.4.3-2.3.4-.9,0-2.9-.2-3.1-.4h2.6c-1.3-.3-3.3,0-4.7,0h.2c-4,0-4,.2-8.3.2h.4c-2.3.4-2,0-4.3,0l-.7-.3c-1.5,0-5.4.3-8.1.3,1.6-.2,4.8-.3,6.8-.4-1.5,0-5.2,0-6,.2h2c-1.9.2-4.3.3-7.4.3.5-.5-7.9,0-10.1-.4-5.4.2-10.7,0-16.9,0,2.2.2-1.8,0-1.4.3h-6.5c-1-.2,1.4-.2,1.2-.2h-3.5c.4,0-1.1,0-2.9,0h2.6c-4.5.2-3.9,0-8.3,0h1.4-10.8c-.4,0-1,0,0,0-5.5,0-12.3.2-16.6,0h.4-3.1s.4,0,0,0h-4.1,1.2-12.8s-4.2-.2-6.3-.2h-16.4c-3.6-.2-12.2-.2-18-.3.9,0,0,.2-1.2.2s-3.8,0-3.5,0h.5c-1-.2-3.8-.2-6-.2l-.4.3c-5.7-.5-14.9,0-18-.4-1.4,0-3.1,0-4.4.2v-.2h-10.3l1-.2c-2.7,0-3.3.6-5.8.6l-.7-.3c-4.6,0-9.3-.4-13.9,0,0,0,.2-.2,1-.2-2.2,0-8.4-.3-7.7.2,0-.3-4.8,0-7.3,0l.4-.2c-2.1.3-2.2.4-5.1.5-.7,0-.6-.2.3,0-2.3,0-1.8.2-4.6,0l1-.2c-2.4,0-2.2,0-3.5.2-1.5,0-4.5,0-4.9-.3-.3,0-1.6.3-3,.3s.3,0,.6-.2c-4-.2-6,.3-8.7,0,0,0-.2,0-.5-.2,3.2,0,5.8,0,5.5,0,0-.2-2.6-.3-.5-.6-2.1.2-5.6.5-8.1.5h-.3.3-3.7c-.3-.2-3,0-4.2,0,0,.2-1.6.2,0,.4-.2,0,.2,0,1.1,0h3.7c-1,0-2.1.2-3.5,0-.7.2-1.4.3-1.8.4-1.8-.3-5.1-.5-5.6-.7-3.9,0-9.2,0-11.7.5-1.1,0-1.3,0-1.7-.2h1.8c-2.2,0-6.6,0-7.1.3-2.8,0,1.6-.3-2.3-.2h.5c-7.6-.5-12.3.6-20.7,0h1c-9.6-.2-19.8.2-29.2,0-2.7,0-3,0-4.6.2h-3.4c-4,0-6.9-.3-11.9,0h.7c-1.8,0-5.7,0-5.4,0h-5.7c-3.5,0,.5,0-4.5,0s-5.3,0-4.6,0h2-1.7c-.3,0-1.6,0,2.6.2h3.9-2.5,7.4c.3,0-1.3,0,.6,0s-1.3,0,.9,0h2.6c.2,0,0,0-.8,0h4.6c1.5,0,4.9,0,4.8.2h3.9c-2.5.2,5,0,4.4.3,1.8-.2,6.6,0,9.8,0h-.8c1.8,0,2.3,0,3.5.2.2-.2,3-.2,4.6-.4,2.2.2-1.3.3-.7.5,0-.2,3.8-.2,3.1-.3,1.7.2,1.5,0,2.3.3.3-.3,1.6,0,3-.2,2.5.2.6.3,3.3.2,1.3,0-1.1.2-1.1.2h0l-.8-.2v.2ZM734.1,1000h-1.3,1.3ZM739.5,1000h-2.3c-.2,0,0-.2.6-.2-.3,0,1,0,1.8.2h0ZM728.1,998.3h1.3-1.5.3,0Z"/>
          <path class="st7" d="M726.6,998.7h-.3.8-.5Z"/>
          <path class="st7" d="M1215.2,999h.2-.2Z"/>
          <polygon class="st7" points="814 1000.3 813.9 1000.2 813.5 1000.3 814 1000.3"/>
          <path class="st7" d="M1244.8,999.8h.4-.4Z"/>
          <path class="st7" d="M1257.7,999.8h1.8-1.8Z"/>
          <path class="st7" d="M1267.5,999.8h.2-.2Z"/>
          <path class="st7" d="M1110.8,1000.5h-.4c-.9,0-.3,0,.4,0Z"/>
          <path class="st7" d="M1157.4,999.8h-1.5,1.5Z"/>
          <path class="st7" d="M1058.7,1000.7h-.3.3Z"/>
          <path class="st7" d="M1153.8,1000h2.2-2.2Z"/>
          <path class="st7" d="M1310.3,999.6h.5-.5Z"/>
          <path class="st7" d="M1310.8,999.6h.5-.5Z"/>
          <path class="st7" d="M1312.4,999.5h-1.1,1.1Z"/>
          <path class="st7" d="M1297.2,999.7h-.2.2Z"/>
          <path class="st7" d="M1293.2,999.7h3.8-3.8Z"/>
          <path class="st7" d="M1276.7,999.1h3.3c-.6,0-1.3,0,.2,0-4.2-.2.9,0-3.5,0Z"/>
          <path class="st7" d="M1266.4,999c1.8,0,0,0,0,0-1.1,0-1.4,0,0,0Z"/>
          <path class="st7" d="M1191.9,998.8l.2-.2c-1.4,0,0,0-.2.2Z"/>
          <polygon class="st7" points="1177.7 1000.1 1179 1000.2 1179.7 1000 1177.7 1000.1"/>
          <polygon class="st7" points="1169.3 998.2 1169.9 998.2 1167.6 998.3 1169.3 998.2"/>
          <path class="st7" d="M1044.2,998.4l.4.3c.9,0,1.1-.4-.4-.3Z"/>
          <path class="st7" d="M990.2,998.9c-.6,0-2.1-.2-3,0h3Z"/>
          <polygon class="st7" points="828.3 998.7 829.4 998.6 827.3 998.6 828.3 998.7"/>
        </g>
      </g>
      <g>
        <line class="st0" x1="592.9" y1="1042.8" x2="1340.1" y2="1042.8"/>
        <g>
          <path class="st7" d="M1340.1,1042.9c.4,0,.2,0-.9,0h-.8,1.7Z"/>
          <path class="st7" d="M1332.8,1042.8c-1.3,0-2.7,0-1.9.2h2.9c1.1,0,1.9,0,1.7,0h2.3-5.1c-.4,0,0,0,0,0h0v-.2Z"/>
          <path class="st7" d="M1226.9,1042.4h.7-.7Z"/>
          <path class="st7" d="M1161.2,1042.1h.7c-.5,0-.8,0-.7,0Z"/>
          <path class="st7" d="M1150,1041.7h.7-.7Z"/>
          <path class="st7" d="M1226.9,1042.4h-1.8,1.8Z"/>
          <path class="st7" d="M1318.2,1043.1h.9-.9Z"/>
          <path class="st7" d="M1255.8,1042.3h.9-1,0Z"/>
          <path class="st7" d="M1278,1042.3c-.5,0-.7.2-.9.2h1.1-.2v-.2Z"/>
          <path class="st7" d="M1313.2,1042.7h.6-.6Z"/>
          <path class="st7" d="M1239.9,1042.2h-.2.2Z"/>
          <path class="st7" d="M618.7,1043.3h0s-.2,0,0,0Z"/>
          <path class="st7" d="M592.9,1042.8h.4-.4Z"/>
          <path class="st7" d="M1129.5,1041.3h0c.5,0,.2,0,0,0Z"/>
          <path class="st7" d="M941.2,1042.3c2.1,0-3.5.2-.3.2-.3,0,2.9-.2.3-.2Z"/>
          <path class="st7" d="M1317.7,1043.1h-.9.9Z"/>
          <path class="st7" d="M940.9,1042.6h.3-.3Z"/>
          <path class="st7" d="M1082.2,1041.6h.5-.5Z"/>
          <path class="st7" d="M1117.4,1042h-.9.9Z"/>
          <path class="st7" d="M1063.9,1042.1h-1.3,1.3Z"/>
          <path class="st7" d="M1044.9,1042.1h.9-.9Z"/>
          <path class="st7" d="M676.5,1043.7c-.4,0-.7,0-.9-.2.3.2-2.5.2.9.2Z"/>
          <path class="st7" d="M1318.2,1043.1h-.6.6Z"/>
          <path class="st7" d="M1063.2,1044.2h-3,3Z"/>
          <path class="st7" d="M813,1043.6h-.7.7Z"/>
          <path class="st7" d="M1051.2,1044.1c-.5,0-1.1-.2-1.7-.2h-.3,2.1v.2h0Z"/>
          <path class="st7" d="M675.6,1043.5h0Z"/>
          <path class="st7" d="M655.7,1043.8c2.9,0,1.3-.2,2-.3,3.4,0,1.6.2,2.8.3,2.2,0,3.8-.3,5.4-.2,0,0,.4,0,0,0,2.3-.2,6.7,0,9.4-.2h.3c-.4,0-.5-.3-.4-.4,1.3,0,2.4-.2,2.9,0h-1.2,1.3c1.2.2-1.8,0-1.8.2,2.6,0,5.7-.3,7.7-.2.4.3-4.7,0-2,.3h-3.1c2.4.3-1.9-.2.3.3h8.7c.9,0-.3-.2.6-.4,5.8-.3,4.6.7,8.9.3,1.1-.2,1.5-.5,4.6-.3l-1,.3c4,0,2.3-.4,6.5-.2-.7,0-3.1,0-2.5,0,2.7.3,1.9-.2,4-.2l.4.3c4.2,0,8.9-.2,13.6-.3-.3,0-1.1.2,0,.3,5.9,0,12.7,0,18.4.2l2.2-.3c.5,0,.9,0,.4.2,2.2,0,0-.2,1.2-.3,1.3,0,1.7.2.9.2,3.9-.2,11.2-.5,15.3-.2h-.8c3.2.2,3.6-.5,6.6-.2h-.6c7,0,14.7,0,20.1.2,1-.3,6.9,0,7.4-.3,4,.2,2.8.3,8.5.4,1.5,0,2.2-.3,4.1-.3v.2l2.6-.2,1.3.2h1.7c-.7,0-1.5,0-1.4-.2h4.3c1.3,0,2.3,0,2.4.2l6.4-.2s-1.2,0-2.1.2c3.4-.2.6.2,3.8,0-.4,0,.2,0,.3,0h7.8-.5,15.4c-1.9,0-1.5-.2,0-.2h.6c1,0-1.6,0,.4,0s1.3,0,.2.2h2.4-.6,18s1.8,0,3.1-.2h10.6c2.7,0,.8,0,2,0s4.1,0,2.1,0h11.8c-.6,0-1.3,0-1,0,1.1,0,2.4,0,2.3,0h-.3c6.6,0,15.2.3,20.5,0h-.3,5.4c2.5,0-1.5,0,.3,0h14.1c3.7.3,13.3,0,18.3.3h-.3c1.3-.2,1.6,0,2.5,0,0,0-1.4,0-.6,0,11.1,0,22.8.3,34.2.5,4.2,0,2.3-.7,7.6-.3l-1.5.2c8.4-.2,17.1,0,25.3,0-.5,0-.5.2-1.3,0,1.7.2,6.4,0,6.4,0,1.3,0,.3.2,1.1.2,1.7,0,4.4-.2,5.3,0,.2,0-.5,0-.8,0,1.1,0,5.3,0,4.2-.2h8.3c1.6-.3,5.3.2,5.8-.2-.2.4,5.4.4,7.3.2-.7,0,1.7,0,.9.3,2.2,0,4.2,0,3.9-.3,4.1.5,8.2-.4,10.5.3,6.6-.2,12.7-.4,18.6-.5-.2.5-6.6,0-6.3.5,5.6-.2,8.9-.6,14.4-.4,1.4,0-.8.2-1.3.3,5.6-.2,10.9,0,15.9-.2h-1.1c1,0,2.3,0,2.2-.2h-1c-1.6-.3,3.9-.6,4.1-.8-1.7.6,4.9.2,2.3.9.7,0,1.5,0,1.3-.3,1,0,1.3,0,.3.3,3.5,0,2.3-.3,5.5-.3,0,0-.7.2-1,.3,1.6-.2,3.2-.4,5.9-.3-.2,0,.2.2-.7.2,4.6,0,7.9-.6,13-.4-1.5.5,1.7.2,2,.6h2.7l-1.1-.3c2.4,0,4.5-.3,6.6-.2l-1.8.2h4.5l-2.5-.2c2.4-.2-.3-.5,2.9-.4-.7,0,2.4,0,3.7.2h0c1.2,0,2.4-.3,4.2-.2.5,0-.4.4,0,.5,1.2-.3,5.6,0,7.1-.4-.5,0-.5.3-.4.3l1-.3c1.1,0,1.3,0,1.1.3,3.3,0-1.1-.5,2.9-.3h-.8c4,0,7.7-.2,11.4,0,1.1.4-3.2,0-2,.4,5.3,0,10.9-.5,16-.4h-.9c.7-.5,3.8.2,6.4,0-.6,0-.8.3-.7.2,3.5,0,7.2,0,12.4-.3h-.7c2.1.2,5.4.2,7.7.2s1.9,0,1.2-.3c6.9.6,13.1-.4,19.2,0-.7,0-1.7,0-1.2,0h5.2c-.4-.3-.7-.2-1.8-.3.7,0,2.1-.2,3.4-.2-2.3,0,0,.3,1,.4-.2,0,.2,0,0-.2,2.7.3.4-.3,4.2,0h-.2,4.2c.6.2-1.5,0-1.6.2,2.1,0,4.1-.3,6-.2h-3.1c2.1.2,2.3.2,3.8.2h-.2,3.6-.9c2.6-.4,5.3,0,8.9-.4-3.4.3-.6.2-.8.3.9,0,2.3,0,1.9,0,1.7-.2,2.8,0,5.2,0,0,0,1.8,0,1.4,0,2.2,0-.5,0-.3-.2,3.3-.2,7.9.2,12.7,0,4.2,0,4.9-.2,8.8-.3,1.3,0-1.1,0-1.1,0h5.7c-.4,0,0,0,.6,0h3.2-1.6,5.7c.5,0-1.2,0-1.8,0h6.3-1.4c.8,0,.4,0-.2,0h-2.8,1.4c-1.4-.2-5.5,0-8.3,0h1.2-2.8c-.6,0-1,0,.3,0h-3.5c-.2,0,0,0,0,0h-1.9c.4,0-.3,0,.9,0h-6.9.3c-4.8,0-.5,0-4.1.3l-2.4-.3h-.5c-.5,0-1.5,0-1.3,0-1.9,0,.3,0-.8.2-2.4,0-6.6,0-7.2-.2-.9,0,2.3,0-.3.2-.7-.3-3,0-5.2,0,.7-.2,2.8,0,.6-.2-1.3.3-4.3,0-6.1,0,0,.2-4,0-7.1.2.2,0-5.8-.2-8.7-.2h0c-.6.2-3.5.2-5.7.2,0-.2.5-.2,1.7-.3h-2c-.5,0-1.1,0-2.4.2l.5-.2c-2.7,0-5.5.2-9,0-.2.2,2.8.6-.9.7,0,0-.3-.3.7-.3h-1.8l1.5-.2c-1.6,0-.8.2-2.1,0,0-.2-.9,0-.8-.2h1.6c-1.4,0-3.2,0-3.8-.3,0,0,0,.2-1.1.2-2.7,0-.9-.2-2.5-.3-.7,0-2.4,0-2.4.2-.8,0-.9,0-1.2-.2-1.4,0-6.6,0-5,.3h.4-.2c-4.6.3-9.6-.2-14.2,0h0c-2.7,0-6.1,0-8,.2-.8,0-1.9-.2-1.6-.3-2.1,0-2.3.2-5.3,0,2.1-.2-.7-.2,2.2,0-2.7,0-3.3-.2-6.2,0,1-.2-2-.3-3.3-.2l1.9.2h-4l.7-.3c-5.6-.4-10,.7-14.2,0-1.5.2,3,.2,1.7.4-2.6,0-5.2-.6-6-.6-3.5-.2-3.3.5-6.9.4.5,0,.9.5-1.8.6-2.6,0-3.1-.5-1.5-.6h.9c.8,0,1.9,0,.9-.2h-.3c-1.3,0-4.8,0-4-.2-1.9,0-.8.2.6.3-3.3-.2-5.1,0-8.5,0,.5,0,1,.2.5.2-4.9-.2-2.2.2-5.5.3-1.9-.2.7-.5-2.7-.3-2.1,0-.4-.3.4-.4-3.1.2-5.8-.2-7.5-.2h1.6-2.6l.9.3c-.9,0-1.8,0-1.7-.2-1,.2.8.4-1.2.7-1.3,0-3.9,0-4.3-.2,4,0-.4-.3,2.9-.4h-2.4.4c-3.8-.3-1.8.4-5.7.4.5-.2-.9-.4-1.6-.3,1.6,0,.8.3-.7.5-2.5-.2-2.8,0-4.1,0h1.5c-.5.3-1.8.2-3.6.3-.2-.2,1.6,0,1-.2-2,.3-4.4-.3-7.2,0-1.3,0,0-.3-1.2-.4-3.1.2-3.3-.2-6.6,0,.9.2,1.1.2-1.2.4l5.3-.2-3.4.4c1.6,0,3.4-.2,4.3,0-1.6.2-1.4,0-.7.3-2.2-.4-4.3.2-6.9,0v-.6c-3.7-.3-6.7.3-11.6.2h1.6c-.7.3-3.1,0-4.7.2.2-.2-.8-.3-1.5-.4,0,.2-3.6,0-4.1.4l-2.2-.2c-4,0-4.6.6-8.4.5,1.2-.2-.6-.3,2-.5h-2.4c-.8,0-3.6.3-4.7,0-.5,0-.7.3-2.2.3s0,0,0,0c0,0-2.2,0-1,.3-3.9-.6-11,0-14.4-.4h-8.7.5c-3.5-.2-2.2.5-6.1.3-2-.3,2.1-.2.8-.3-.6-.6-4.8,0-7.5-.2h.7c-2-.2-5,.2-8.3.2,0,0,.2,0,0,0-2.3.3-6.6.4-9.8.4,1-.2,1.5,0,.8-.3-1.4,0,.4.3-2.5.4-.9,0-3-.2-3.3-.4h2.7c-1.4-.3-3.5,0-5,0h.2c-4.2,0-4.2.2-8.7.2h.5c-2.4.3-2,0-4.5,0l-.7-.3c-1.6,0-5.7.3-8.5.3,1.6-.2,5-.3,7.1-.4-1.6,0-5.4,0-6.3.2h2.1c-2,.2-4.5.3-7.7.3.6-.4-8.3,0-10.6-.4-5.6.2-11.2,0-17.8,0,2.3.2-1.9,0-1.5.3h-6.8c-1.1-.2,1.5-.2,1.3-.2h-3.6c.5,0-1.2,0-3.1,0h2.7c-4.7.2-4,0-8.8,0h1.5-11.3c-.4,0-1,0,0,0-5.8,0-12.9.2-17.4,0h.4-3.2s.4,0,0,0h-4.3,1.2-13.4s-4.4-.2-6.6-.2h-17.2c-3.8-.2-12.8-.2-18.9-.3.9,0-.2.2-1.2.2s-3.9,0-3.7,0h.5c-1.1-.2-4-.2-6.3-.2l-.4.3c-6-.5-15.7,0-18.9-.4-1.4,0-3.2,0-4.7.2v-.2h-10.9l1-.2c-2.8,0-3.5.6-6.1.6l-.8-.3c-4.9,0-9.8-.4-14.6,0,0,0,.2-.2,1-.2-2.3,0-8.9-.3-8,.2,0-.3-5,0-7.6,0l.4-.2c-2.2.3-2.3.4-5.4.5-.7,0-.6-.2.3,0-2.4,0-1.9.2-4.9,0l1.1-.2c-2.5,0-2.3,0-3.7.2-1.6,0-4.8,0-5.1-.3-.3,0-1.7.3-3.2.3s.3,0,.6-.2c-4.2-.2-6.2.3-9.2,0,0,0-.2,0-.5-.2,3.3,0,6,0,5.8,0,0-.2-2.7-.3-.5-.6-2.2.2-5.9.6-8.5.4h-.3.3-3.9c-.3-.2-3.1,0-4.4,0,0,.2-1.7.2,0,.4-.2,0,.2,0,1.2,0h3.9c-1.1,0-2.2.2-3.7,0-.7.2-1.5.3-1.9.4-1.8-.3-5.4-.5-5.9-.7-4.1,0-9.7,0-12.3.6-1.2,0-1.3,0-1.8-.2h1.8c-2.3,0-6.9,0-7.5.3-2.9,0,1.7-.3-2.4-.2h.5c-8-.5-12.9.6-21.8,0h1c-10.1-.2-20.7.2-30.7,0-2.8,0-3.1,0-4.8.2h-3.5c-4.2,0-7.2-.3-12.5,0h.7c-1.9,0-6,0-5.7,0h-6.1c-3.6,0,.6,0-4.7,0s-5.6,0-4.8,0h2.1-1.8c-.3,0-1.7,0,2.7.2h4.1-2.6,7.7c.4,0-1.3,0,.7,0s-1.3,0,1,0h2.8c.2,0,0,0-.8,0h4.8c1.5,0,5.2,0,5,.2h4.1c-2.6.2,5.3,0,4.6.3,1.9-.2,6.9,0,10.2,0h-.9c1.9,0,2.5,0,3.7.2.2-.2,3.2-.2,4.8-.4,2.3.2-1.4.3-.7.5,0-.2,4-.2,3.2-.3,1.8.2,1.5,0,2.5.3.3-.3,1.7,0,3.1-.2,2.6.2.7.3,3.5.2,1.3,0-1.2.2-1.2.2h.4v.2ZM723,1043.5h-1.4,1.4ZM728.7,1043.5h-2.5c-.2,0,0-.2.6-.2-.3,0,1,0,1.9.2h0ZM716.7,1041.8h1.3-1.7.4Z"/>
          <path class="st7" d="M715.1,1042.1h-.4.8-.5.1Z"/>
          <path class="st7" d="M1227.7,1042.5h.2-.2Z"/>
          <polygon class="st7" points="806.7 1043.7 806.7 1043.7 806.2 1043.7 806.7 1043.7"/>
          <path class="st7" d="M1258.8,1043.2h.4-.4Z"/>
          <path class="st7" d="M1272.3,1043.2h1.9-1.9Z"/>
          <path class="st7" d="M1282.6,1043.3h.2-.2Z"/>
          <path class="st7" d="M1118.2,1044h-.4c-.9,0-.3,0,.4,0Z"/>
          <path class="st7" d="M1167.1,1043.3h-1.6,1.6Z"/>
          <path class="st7" d="M1063.5,1044.2h-.3.3Z"/>
          <path class="st7" d="M1163.2,1043.4h2.3-2.3Z"/>
          <path class="st7" d="M1327.4,1043h.5-.6,0Z"/>
          <path class="st7" d="M1328,1043h.6-.6Z"/>
          <path class="st7" d="M1329.7,1043h-1.2,1.2Z"/>
          <path class="st7" d="M1313.8,1043.1h-.2.2Z"/>
          <path class="st7" d="M1309.6,1043.1h4-4Z"/>
          <path class="st7" d="M1292.2,1042.6h3.5c-.6,0-1.4,0,.2,0-4.4-.2.9,0-3.7,0Z"/>
          <path class="st7" d="M1281.4,1042.4c1.9,0,0,0,0,0-1.2,0-1.5,0,0,0Z"/>
          <path class="st7" d="M1203.3,1042.2l.2-.2c-1.4,0,0,0-.2.2Z"/>
          <polygon class="st7" points="1188.3 1043.5 1189.8 1043.7 1190.4 1043.4 1188.3 1043.5"/>
          <polygon class="st7" points="1179.5 1041.7 1180.2 1041.6 1177.8 1041.7 1179.5 1041.7"/>
          <path class="st7" d="M1048.3,1041.9l.4.3c1,0,1.2-.4-.4-.3Z"/>
          <path class="st7" d="M991.7,1042.3c-.6,0-2.2-.2-3.2,0h3.2Z"/>
          <polygon class="st7" points="821.8 1042.1 822.9 1042.1 820.8 1042.1 821.8 1042.1"/>
        </g>
      </g>
      <line class="st3" x1="592.9" y1="1026.5" x2="1338.6" y2="1026.5"/>
      <line class="st3" x1="610.2" y1="981" x2="1321.1" y2="981"/>
      <polygon class="st5" points="966.1 24.8 136.4 150.5 1795.8 150.5 966.1 24.8"/>
      <path class="st5" d="M108.2,87.3h25.1c10.5,0,19,8.5,19,19v44.2h-63.2v-44.2c0-10.5,8.5-19,19-19h0Z"/>
      <path class="st5" d="M1827.4,150.5h-63.2v-44.2c0-10.5,8.5-19,19-19h25.1c10.5,0,19,8.5,19,19v44.2h0Z"/>
      <path class="st5" d="M426.7,99.2h1072.1c18.2,0,33.1,14.8,33.1,33.1v94.9H393.6v-94.9c0-18.2,14.8-33.1,33.1-33.1h0Z"/>
      <rect class="st5" x="64.3" y="246.9" width="264.1" height="99"/>
      <rect class="st5" x="111.8" y="345.9" width="171.8" height="15.2"/>
      <rect class="st5" x="137.1" y="361" width="118.4" height="40.3"/>
      <rect class="st5" x="98.4" y="816.6" width="201.2" height="75.8"/>
      <rect class="st5" x="152.4" y="401.3" width="87.8" height="375"/>
      <rect class="st5" x="139.8" y="776.3" width="118.4" height="40.3"/>
      <rect class="st5" x="393.7" y="226.7" width="264.1" height="99"/>
      <rect class="st5" x="441.2" y="325.7" width="171.8" height="15.2"/>
      <rect class="st5" x="466.6" y="340.9" width="118.4" height="40.3"/>
      <rect class="st5" x="427.9" y="816.6" width="201.2" height="75.8"/>
      <rect class="st5" x="481.9" y="381.1" width="87.8" height="395.2"/>
      <rect class="st5" x="469.3" y="776.3" width="118.4" height="40.3"/>
      <rect class="st5" x="1262.1" y="226.7" width="264.1" height="99"/>
      <rect class="st5" x="1309.6" y="325.7" width="171.8" height="15.2"/>
      <rect class="st5" x="1335" y="340.9" width="118.4" height="40.3"/>
      <rect class="st5" x="1296.3" y="816.6" width="201.2" height="75.8"/>
      <rect class="st5" x="1350.3" y="381.1" width="87.8" height="395.2"/>
      <rect class="st5" x="1337.7" y="776.3" width="118.4" height="40.3"/>
      <rect class="st5" x="1591.6" y="246.9" width="264.1" height="99"/>
      <rect class="st5" x="1639.1" y="345.9" width="171.8" height="15.2"/>
      <rect class="st5" x="1664.5" y="361" width="118.4" height="40.3"/>
      <rect class="st5" x="1625.8" y="816.6" width="201.2" height="75.8"/>
      <rect class="st5" x="1679.8" y="401.3" width="87.8" height="375"/>
      <rect class="st5" x="1667.2" y="776.3" width="118.4" height="40.3"/>
      <rect class="st5" x="240.2" y="579" width="241.7" height="19.7"/>
      <rect class="st5" x="1438.1" y="579" width="241.7" height="19.7"/>
      <path class="st5" d="M361,381.1h0c33.5,0,60.7,27.2,60.7,60.7v102h-121.3v-102c0-33.5,27.2-60.7,60.7-60.7h-.1Z"/>
      <path class="st5" d="M361,633.8h0c33.5,0,60.7,27.2,60.7,60.7v102h-121.3v-102c0-33.5,27.2-60.7,60.7-60.7h-.1Z"/>
      <path class="st5" d="M1564.6,381.1h0c33.5,0,60.7,27.2,60.7,60.7v102h-121.3v-102c0-33.5,27.2-60.7,60.7-60.7h0Z"/>
      <path class="st5" d="M1564.6,633.8h0c33.5,0,60.7,27.2,60.7,60.7v102h-121.3v-102c0-33.5,27.2-60.7,60.7-60.7h0Z"/>
      <line class="st2" x1="361" y1="381.1" x2="361" y2="543.8"/>
      <line class="st2" x1="300.6" y1="436.7" x2="421.7" y2="436.7"/>
      <line class="st2" x1="300.6" y1="490.7" x2="421.7" y2="490.7"/>
      <line class="st2" x1="361" y1="633.8" x2="361" y2="796.5"/>
      <line class="st2" x1="300.6" y1="689.4" x2="421.7" y2="689.4"/>
      <line class="st2" x1="300.6" y1="743.4" x2="421.7" y2="743.4"/>
      <line class="st2" x1="1564.5" y1="381.1" x2="1564.5" y2="543.8"/>
      <line class="st2" x1="1504.1" y1="436.7" x2="1625.2" y2="436.7"/>
      <line class="st2" x1="1504.1" y1="490.7" x2="1625.2" y2="490.7"/>
      <line class="st2" x1="1564.5" y1="633.8" x2="1564.5" y2="796.5"/>
      <line class="st2" x1="1504.1" y1="689.4" x2="1625.2" y2="689.4"/>
      <line class="st2" x1="1504.1" y1="743.4" x2="1625.2" y2="743.4"/>
      <g class="st6">
        <g class="st6">
          <g class="st6">
            <g class="st6">
              <path d="M656.3,198.7h-16.7l-21.3-67.5h13.8l16,55h.4l16-55h13.2l-21.3,67.5Z"/>
              <path d="M699.6,150.6c7.1,0,12.6,3.1,15,7.4h.4c0-.7-.2-1.6-.2-4.1v-1.8h11.5v46.6h-11.5v-2.2c0-2.1,0-3.3.2-4.3h-.4c-2.7,4.9-8.5,7.9-15.6,7.9-13.3,0-22.7-10.2-22.7-24.7s9.9-24.7,23.2-24.7ZM714.4,175.2c0-8-5.3-13.6-12.7-13.6s-12.6,5.6-12.6,13.6,5.3,13.8,12.6,13.8,12.7-5.7,12.7-13.8Z"/>
              <path d="M778.2,152.1v46.6h-12.6v-35.8h-14.4v35.8h-12.6v-46.6h39.6Z"/>
              <path d="M840.8,162.2h35.1c.3.8.5,2.3.5,5.3,0,19.1-12.4,32.7-32.8,32.7s-34.4-14.7-34.4-35.2,14.4-35.2,34.4-35.2,21.8,5.3,27.5,14l-8.6,7.2c-4-6.2-11-9.9-18.9-9.9-12.8,0-21.4,9.8-21.4,23.8s8.5,23.8,21.4,23.8,18.2-6.1,20-15.4h-22.8v-11.2Z"/>
              <path d="M882.2,175.4c0-14.4,10.4-24.7,24.9-24.7s25,10.3,25,24.7-10.5,24.7-25,24.7-24.9-10.4-24.9-24.7ZM919.5,175.2c0-8-4.9-13.6-12.3-13.6s-12.3,5.6-12.3,13.6,5,13.8,12.3,13.8,12.3-5.7,12.3-13.8Z"/>
              <path d="M960.6,150.6c7,0,12.7,3,15.4,7.6h.4c0-.9-.2-1.9-.2-4v-2.2h11.5v67.3h-34.6v-11h22.1v-12.6c0-2.2,0-3.1.3-4h-.4c-2.1,3.9-7.4,6.7-13.9,6.7-13,0-22.8-9.8-22.8-23.8s9.4-23.9,22.2-23.9ZM951.1,174.5c0,7.6,5.2,12.9,12.3,12.9s12.3-5.3,12.3-12.9-5.2-12.9-12.3-12.9-12.3,5.2-12.3,12.9Z"/>
              <path d="M1000,198.7v-67.5h12.6v20.9h27.1v46.6h-12.6v-35.8h-14.5v35.8h-12.6Z"/>
              <path d="M1102.3,162.2h35.1c.3.8.4,2.3.4,5.3,0,19.1-12.4,32.7-32.8,32.7s-34.4-14.7-34.4-35.2,14.4-35.2,34.4-35.2,21.8,5.3,27.5,14l-8.6,7.2c-4-6.2-11-9.9-18.9-9.9-12.8,0-21.4,9.8-21.4,23.8s8.5,23.8,21.4,23.8,18.2-6.1,20-15.4h-22.8v-11.2Z"/>
              <path d="M1169.3,152.1v11.1h-9.9v35.5h-12.6v-46.6h22.5Z"/>
              <path d="M1196.9,150.6c7.1,0,12.6,3.1,15,7.4h.4c0-.7-.2-1.6-.2-4.1v-1.8h11.5v46.6h-11.5v-2.2c0-2.1,0-3.3.2-4.3h-.4c-2.7,4.9-8.5,7.9-15.6,7.9-13.3,0-22.7-10.2-22.7-24.7s9.9-24.7,23.2-24.7ZM1211.6,175.2c0-8-5.3-13.6-12.7-13.6s-12.6,5.6-12.6,13.6,5.3,13.8,12.6,13.8,12.7-5.7,12.7-13.8Z"/>
              <path d="M1299.9,198.7h-12.6v-30.2c0-4-2.9-6.8-6.8-6.8s-6.7,2.9-6.7,6.8v30.2h-12.6v-30.2c0-4-2.9-6.8-6.8-6.8s-6.7,2.9-6.7,6.8v30.2h-12.6v-30.1c0-10.6,8.5-18,19.2-18s10.3,2.2,13.3,5.9c3.2-3.8,7.8-5.9,13.5-5.9,10.8,0,18.6,7.4,18.6,18v30.1Z"/>
            </g>
          </g>
        </g>
      </g>
      <g class="st6">
        <g class="st6">
          <g class="st6">
            <g class="st6">
              <path d="M783.6,305.6v-36h12.2c10.9,0,18.5,7,18.5,18s-7.6,18-18.5,18h-12.2ZM807.4,287.5c0-7.6-4.5-12-11.5-12h-5.4v24h5.4c7,0,11.5-4.5,11.5-12Z"/>
              <path d="M818.6,273.5c0-2.2,1.8-3.9,4-3.9s4,1.7,4,3.9-1.8,3.9-4,3.9-4-1.7-4-3.9ZM819.3,305.6v-24.9h6.7v24.9h-6.7Z"/>
              <path d="M842.8,280c3.7,0,6.8,1.6,8.2,4h.2c0-.5,0-1,0-2.1v-1.2h6.1v35.9h-18.5v-5.9h11.8v-6.7c0-1.2,0-1.6.1-2.2h-.2c-1.1,2.1-3.9,3.6-7.4,3.6-6.9,0-12.1-5.2-12.1-12.7s5-12.8,11.9-12.8ZM837.7,292.7c0,4.1,2.8,6.9,6.6,6.9s6.6-2.8,6.6-6.9-2.8-6.9-6.6-6.9-6.6,2.8-6.6,6.9Z"/>
              <path d="M863.1,273.5c0-2.2,1.8-3.9,4-3.9s4,1.7,4,3.9-1.8,3.9-4,3.9-4-1.7-4-3.9ZM863.8,305.6v-24.9h6.7v24.9h-6.7Z"/>
              <path d="M878,286.5h-2.4v-5.8h2.4v-6.3h6.7v6.3h5.8v5.8h-5.8v13.2h5v5.9h-11.8v-19.1Z"/>
              <path d="M905.5,280c3.8,0,6.7,1.6,8,3.9h.2c0-.4,0-.9,0-2.2v-1h6.1v24.9h-6.1v-1.2c0-1.1,0-1.8,0-2.3h-.2c-1.4,2.6-4.5,4.2-8.3,4.2-7.1,0-12.1-5.4-12.1-13.2s5.3-13.2,12.4-13.2ZM913.4,293.1c0-4.3-2.8-7.2-6.8-7.2s-6.7,3-6.7,7.2,2.8,7.3,6.7,7.3,6.8-3,6.8-7.3Z"/>
              <path d="M926.3,269.6h6.7v30.1h5.2v5.9h-11.9v-36Z"/>
              <path d="M967.8,297.6l-8.3-16.3h-.2v24.3h-6.5v-36h8.4l9.4,19.4h.2l9.6-19.4h8v36h-6.5v-24.3h-.2l-8.2,16.3h-5.7Z"/>
              <path d="M995,305.6v-24.9h6.7v19h7.5v-19h6.7v24.9h-20.9Z"/>
              <path d="M1030.3,289.9l3.1,1.6c2.8,1.4,5.3,3.2,5.3,7.2s-3.5,7.7-9.3,7.7-8.3-3.1-9.2-6.3l5-2.8c.4,1.6,1.7,3.6,4.2,3.6s2.6-.8,2.6-2.3-.7-1.7-2.7-2.6l-2.6-1.3c-2.8-1.3-5.4-3-5.4-7.4s3.6-7.3,8.4-7.3,7.5,2.5,9,5.5l-4.7,2.8c-.9-1.7-2.2-2.9-4.2-2.9s-2.4.7-2.4,2,.7,1.6,2.8,2.6Z"/>
              <path d="M1055.5,306.4c-7.9,0-13.3-5.6-13.3-13.2s5.5-13.2,13.2-13.2,12.2,5.5,12.2,13.2,0,1.5-.2,2.1h-18.3c.7,3.3,3,5.1,6.4,5.1s4.6-.9,6.2-2.9l3.9,4.1c-2.5,3.3-6,4.8-10.2,4.8ZM1049.1,291h11.9c-.5-3.1-2.6-5.2-5.8-5.2s-5.5,2-6.1,5.2Z"/>
              <path d="M1072.3,305.6v-24.9h6.7v19h7.5v-19h6.7v24.9h-20.9Z"/>
              <path d="M1134,305.6h-6.7v-16.1c0-2.1-1.5-3.6-3.6-3.6s-3.6,1.5-3.6,3.6v16.1h-6.7v-16.1c0-2.1-1.5-3.6-3.6-3.6s-3.6,1.5-3.6,3.6v16.1h-6.7v-16c0-5.7,4.5-9.6,10.2-9.6s5.5,1.2,7.1,3.2c1.7-2,4.2-3.2,7.2-3.2,5.8,0,9.9,3.9,9.9,9.6v16Z"/>
            </g>
          </g>
        </g>
      </g>
      <line class="st1" x1="657.8" y1="325.7" x2="1262.1" y2="325.7"/>
    </g>
  </g>
  <g id="doorright">
    <g id="Door_right">
      <g id="Door_right1">
        <rect class="st5" x="959.4" y="381.2" width="302.2" height="470"/>
        <rect class="st4" x="972" y="397" width="276.8" height="443.3"/>
        <circle class="st5" cx="995.8" cy="688.8" r="12.5"/>
      </g>
    </g>
  </g>
  <g id="doorleft">
    <g id="Door_left">
      <g id="Door_left1">
        <rect class="st5" x="657.2" y="381.1" width="302.2" height="470"/>
        <rect class="st4" x="669.8" y="397" width="276.8" height="443.3"/>
        <circle class="st5" cx="922.9" cy="688.8" r="12.5"/>
      </g>
    </g>
  </g>
</svg>